<svg width="78" height="31" viewBox="0 0 78 31" fill="none" xmlns="http://www.w3.org/2000/svg">
<rect y="7" width="78" height="24" rx="12" fill="#00DE5A"/>
<path d="M17.3404 23.828H10.0684V21.02H15.6124V20.36H9.99641V19.244H17.0404V22.04H11.4604V22.7H17.3404V23.828ZM18.5644 16.604H17.0404V18.608H15.6124V13.256H17.0404V15.452H18.5644V16.604ZM8.73641 16.112C8.73641 14.672 9.91241 13.628 11.5084 13.628C13.1044 13.628 14.2684 14.648 14.2684 16.112C14.2684 17.528 13.1044 18.488 11.5084 18.488C9.98441 18.488 8.73641 17.564 8.73641 16.112ZM10.1164 16.1C10.1164 16.808 10.6924 17.336 11.5084 17.336C12.3484 17.336 12.9124 16.748 12.9124 16.1C12.9124 15.356 12.3604 14.78 11.5084 14.78C10.7524 14.78 10.1164 15.368 10.1164 16.1ZM27.3912 23.816H20.1192V20.108H27.3912V23.816ZM25.9992 22.712V21.176H21.5232V22.712H25.9992ZM27.3912 19.556H25.9992V13.256H27.3912V19.556ZM24.8232 17.78L24.9672 18.86C24.0072 19.088 21.9672 19.232 20.5392 19.232H19.0992V15.944H22.5552V14.996H19.0632V13.892H23.9472V17H20.5032V18.104C21.6312 18.164 23.9952 18.008 24.8232 17.78ZM39.9384 21.008H38.5344V13.256H39.9384V21.008ZM40.1664 23.66H32.7384V20.312H34.1544V22.556H40.1664V23.66ZM37.5984 18.308L36.8064 19.424C35.9904 19.112 34.8744 18.116 34.4064 17.132C34.0824 18.224 32.9184 19.328 31.9344 19.676L31.0824 18.56C32.6424 17.996 33.6624 16.604 33.6624 14.996V13.868H35.1264V14.924C35.1264 16.568 36.3624 17.9 37.5984 18.308ZM49.9052 21.896C49.9052 23.156 48.5492 23.936 46.1612 23.936C43.7972 23.936 42.4292 23.156 42.4292 21.896C42.4292 20.648 43.7972 19.856 46.1612 19.856C48.5492 19.856 49.9052 20.648 49.9052 21.896ZM47.2292 18.524C46.9892 18.884 46.7612 19.244 46.5332 19.604C45.7052 19.34 44.6012 18.62 44.1572 17.72C43.7852 18.68 42.6932 19.64 41.6492 19.964C41.3852 19.616 41.1332 19.244 40.8812 18.896C42.2252 18.428 43.1972 17.588 43.3892 16.304H41.3372V15.2H46.9532V16.304H44.9132C45.1292 17.564 46.1492 18.212 47.2292 18.524ZM49.8212 13.256V19.748H48.4172V17.732H46.7852V16.604H48.4172V13.256H49.8212ZM48.4172 21.896C48.4172 21.344 47.6252 20.948 46.1612 20.948C44.7212 20.948 43.9052 21.344 43.9052 21.896C43.9052 22.46 44.7212 22.832 46.1612 22.832C47.6252 22.832 48.4172 22.46 48.4172 21.896ZM42.5972 14.648V13.544H45.7052V14.648H42.5972Z" fill="#333333"/>
<path fill-rule="evenodd" clip-rule="evenodd" d="M57.7273 14.2273C57.5076 14.4469 57.5076 14.8031 57.7273 15.0227L66.4773 23.7727C66.6969 23.9924 67.0531 23.9924 67.2727 23.7727C67.4924 23.5531 67.4924 23.1969 67.2727 22.9773L58.5227 14.2273C58.3031 14.0076 57.9469 14.0076 57.7273 14.2273Z" fill="#1E1E23"/>
<path fill-rule="evenodd" clip-rule="evenodd" d="M67.2727 14.2273C67.4924 14.4469 67.4924 14.8031 67.2727 15.0227L58.5227 23.7727C58.3031 23.9924 57.9469 23.9924 57.7273 23.7727C57.5076 23.5531 57.5076 23.1969 57.7273 22.9773L66.4773 14.2273C66.6969 14.0076 67.0531 14.0076 67.2727 14.2273Z" fill="#1E1E23"/>
<path d="M61.134 1.5C61.5189 0.833333 62.4811 0.833334 62.866 1.5L66.3301 7.5C66.715 8.16667 66.2339 9 65.4641 9H58.5359C57.7661 9 57.285 8.16667 57.6699 7.5L61.134 1.5Z" fill="#00DE5A"/>
</svg>
