<svg width="84" height="27" viewBox="0 0 84 27" fill="none" xmlns="http://www.w3.org/2000/svg">
<rect y="7" width="84" height="20" rx="10" fill="#00DE5A"/>
<path d="M17.0709 21.828H9.79888V19.02H15.3429V18.36H9.72688V17.244H16.7709V20.04H11.1909V20.7H17.0709V21.828ZM18.2949 14.604H16.7709V16.608H15.3429V11.256H16.7709V13.452H18.2949V14.604ZM8.46688 14.112C8.46688 12.672 9.64288 11.628 11.2389 11.628C12.8349 11.628 13.9989 12.648 13.9989 14.112C13.9989 15.528 12.8349 16.488 11.2389 16.488C9.71488 16.488 8.46688 15.564 8.46688 14.112ZM9.84688 14.1C9.84688 14.808 10.4229 15.336 11.2389 15.336C12.0789 15.336 12.6429 14.748 12.6429 14.1C12.6429 13.356 12.0909 12.78 11.2389 12.78C10.4829 12.78 9.84688 13.368 9.84688 14.1ZM27.1217 21.816H19.8497V18.108H27.1217V21.816ZM25.7297 20.712V19.176H21.2537V20.712H25.7297ZM27.1217 17.556H25.7297V11.256H27.1217V17.556ZM24.5537 15.78L24.6977 16.86C23.7377 17.088 21.6977 17.232 20.2697 17.232H18.8297V13.944H22.2857V12.996H18.7937V11.892H23.6777V15H20.2337V16.104C21.3617 16.164 23.7257 16.008 24.5537 15.78ZM39.6688 19.008H38.2648V11.256H39.6688V19.008ZM39.8968 21.66H32.4688V18.312H33.8848V20.556H39.8968V21.66ZM37.3288 16.308L36.5368 17.424C35.7208 17.112 34.6048 16.116 34.1368 15.132C33.8128 16.224 32.6488 17.328 31.6648 17.676L30.8128 16.56C32.3728 15.996 33.3928 14.604 33.3928 12.996V11.868H34.8568V12.924C34.8568 14.568 36.0928 15.9 37.3288 16.308ZM49.6357 19.896C49.6357 21.156 48.2797 21.936 45.8917 21.936C43.5277 21.936 42.1597 21.156 42.1597 19.896C42.1597 18.648 43.5277 17.856 45.8917 17.856C48.2797 17.856 49.6357 18.648 49.6357 19.896ZM46.9597 16.524C46.7197 16.884 46.4917 17.244 46.2637 17.604C45.4357 17.34 44.3317 16.62 43.8877 15.72C43.5157 16.68 42.4237 17.64 41.3797 17.964C41.1157 17.616 40.8637 17.244 40.6117 16.896C41.9557 16.428 42.9277 15.588 43.1197 14.304H41.0677V13.2H46.6837V14.304H44.6437C44.8597 15.564 45.8797 16.212 46.9597 16.524ZM49.5517 11.256V17.748H48.1477V15.732H46.5157V14.604H48.1477V11.256H49.5517ZM48.1477 19.896C48.1477 19.344 47.3557 18.948 45.8917 18.948C44.4517 18.948 43.6357 19.344 43.6357 19.896C43.6357 20.46 44.4517 20.832 45.8917 20.832C47.3557 20.832 48.1477 20.46 48.1477 19.896ZM42.3277 12.648V11.544H45.4357V12.648H42.3277ZM62.3748 21.864H55.0068V19.068H60.6828V18.42H54.9948V17.304H62.0748V20.088H56.4108V20.736H62.3748V21.864ZM59.9628 16.38C58.4988 16.668 55.6668 16.764 53.4348 16.764L53.2548 15.624H54.6468C54.5508 14.94 54.4788 14.256 54.3948 13.584C54.8508 13.548 55.3068 13.488 55.7748 13.44C55.7988 14.16 55.8468 14.868 55.8948 15.6C56.3148 15.588 56.7348 15.576 57.1068 15.552L57.2268 13.44C57.6708 13.488 58.1148 13.548 58.5708 13.572L58.3308 15.492C58.9428 15.444 59.4588 15.396 59.8548 15.324L59.9628 16.38ZM62.0748 16.752H60.6828V11.256H62.0748V16.752ZM59.5548 12.972H53.6148V11.868H59.5548V12.972ZM68.6336 21.96H67.2176V18.156H63.1256V17.052H72.7856V18.156H68.6336V21.96ZM72.3896 15.024L71.7776 16.164C70.1936 15.924 68.4896 14.904 67.9616 13.728C67.4936 14.904 65.7896 15.912 64.1696 16.176L63.5696 15.024C65.4176 14.82 67.2176 13.632 67.2176 12.036V11.484H68.7056V12.036C68.7056 13.632 70.6736 14.868 72.3896 15.024ZM73.7284 18.12L73.5364 11.964H75.0964L74.9284 18.12H73.7284ZM73.6084 20.676V19.272H75.0484V20.676H73.6084Z" fill="#333333"/>
<path d="M61.134 1.5C61.5189 0.833333 62.4811 0.833334 62.866 1.5L66.3301 7.5C66.715 8.16667 66.2339 9 65.4641 9H58.5359C57.7661 9 57.285 8.16667 57.6699 7.5L61.134 1.5Z" fill="#00DE5A"/>
</svg>
