<svg width="59" height="27" viewBox="0 0 59 27" fill="none" xmlns="http://www.w3.org/2000/svg">
<rect y="7" width="59" height="20" rx="10" fill="#00DE5A"/>
<path d="M17.3404 21.828H10.0684V19.02H15.6124V18.36H9.99641V17.244H17.0404V20.04H11.4604V20.7H17.3404V21.828ZM18.5644 14.604H17.0404V16.608H15.6124V11.256H17.0404V13.452H18.5644V14.604ZM8.73641 14.112C8.73641 12.672 9.91241 11.628 11.5084 11.628C13.1044 11.628 14.2684 12.648 14.2684 14.112C14.2684 15.528 13.1044 16.488 11.5084 16.488C9.98441 16.488 8.73641 15.564 8.73641 14.112ZM10.1164 14.1C10.1164 14.808 10.6924 15.336 11.5084 15.336C12.3484 15.336 12.9124 14.748 12.9124 14.1C12.9124 13.356 12.3604 12.78 11.5084 12.78C10.7524 12.78 10.1164 13.368 10.1164 14.1ZM27.3912 21.816H20.1192V18.108H27.3912V21.816ZM25.9992 20.712V19.176H21.5232V20.712H25.9992ZM27.3912 17.556H25.9992V11.256H27.3912V17.556ZM24.8232 15.78L24.9672 16.86C24.0072 17.088 21.9672 17.232 20.5392 17.232H19.0992V13.944H22.5552V12.996H19.0632V11.892H23.9472V15H20.5032V16.104C21.6312 16.164 23.9952 16.008 24.8232 15.78ZM39.9384 19.008H38.5344V11.256H39.9384V19.008ZM40.1664 21.66H32.7384V18.312H34.1544V20.556H40.1664V21.66ZM37.5984 16.308L36.8064 17.424C35.9904 17.112 34.8744 16.116 34.4064 15.132C34.0824 16.224 32.9184 17.328 31.9344 17.676L31.0824 16.56C32.6424 15.996 33.6624 14.604 33.6624 12.996V11.868H35.1264V12.924C35.1264 14.568 36.3624 15.9 37.5984 16.308ZM49.9052 19.896C49.9052 21.156 48.5492 21.936 46.1612 21.936C43.7972 21.936 42.4292 21.156 42.4292 19.896C42.4292 18.648 43.7972 17.856 46.1612 17.856C48.5492 17.856 49.9052 18.648 49.9052 19.896ZM47.2292 16.524C46.9892 16.884 46.7612 17.244 46.5332 17.604C45.7052 17.34 44.6012 16.62 44.1572 15.72C43.7852 16.68 42.6932 17.64 41.6492 17.964C41.3852 17.616 41.1332 17.244 40.8812 16.896C42.2252 16.428 43.1972 15.588 43.3892 14.304H41.3372V13.2H46.9532V14.304H44.9132C45.1292 15.564 46.1492 16.212 47.2292 16.524ZM49.8212 11.256V17.748H48.4172V15.732H46.7852V14.604H48.4172V11.256H49.8212ZM48.4172 19.896C48.4172 19.344 47.6252 18.948 46.1612 18.948C44.7212 18.948 43.9052 19.344 43.9052 19.896C43.9052 20.46 44.7212 20.832 46.1612 20.832C47.6252 20.832 48.4172 20.46 48.4172 19.896ZM42.5972 12.648V11.544H45.7052V12.648H42.5972Z" fill="#333333"/>
<path d="M46.134 1.5C46.5189 0.833333 47.4811 0.833334 47.866 1.5L51.3301 7.5C51.715 8.16667 51.2339 9 50.4641 9H43.5359C42.7661 9 42.285 8.16667 42.6699 7.5L46.134 1.5Z" fill="#00DE5A"/>
</svg>
